<svg width="120" height="28" viewBox="0 0 120 28" fill="none" xmlns="http://www.w3.org/2000/svg">
<g clip-path="url(#clip0_5551_74173)">
<path d="M25.6236 23.6273C27.207 22.0514 28.3666 20.1981 29.0914 18.2226C27.5972 15.9143 25.5344 13.9943 23.1148 12.6626C23.2263 14.86 22.4346 17.0907 20.7509 18.7775C18.7104 20.8085 15.8448 21.5298 13.2133 20.9416C11.7749 20.6198 10.4034 19.8984 9.27722 18.7775C7.59352 17.1018 6.80185 14.86 6.91335 12.6626C4.48258 13.9943 2.43091 15.9143 0.936768 18.2226C1.66154 20.187 2.81003 22.0403 4.40452 23.6273C10.2696 29.4648 19.7697 29.4648 25.6348 23.6273H25.6236Z" fill="url(#paint0_linear_5551_74173)"/>
<path d="M15.0084 15.3261C16.6157 15.3261 17.9186 14.0292 17.9186 12.4295C17.9186 10.8298 16.6157 9.53296 15.0084 9.53296C13.4011 9.53296 12.0981 10.8298 12.0981 12.4295C12.0981 14.0292 13.4011 15.3261 15.0084 15.3261Z" fill="#075AD3"/>
<g style="mix-blend-mode:multiply" opacity="0.5">
<path d="M7.23671 15.3483C6.98025 14.4716 6.86875 13.5615 6.91335 12.6626C4.48258 13.9943 2.43091 15.9143 0.936768 18.2226C1.33818 19.2991 1.86225 20.3312 2.50897 21.3079C3.50135 18.944 5.16275 16.8576 7.23671 15.3483Z" fill="#65E5CC"/>
</g>
<g style="mix-blend-mode:multiply" opacity="0.5">
<path d="M23.1036 12.6626C23.1482 13.5615 23.0367 14.4716 22.7803 15.3483C24.988 16.558 26.8055 18.4668 27.8648 20.753C28.3554 19.9428 28.7569 19.0994 29.0802 18.2226C27.5861 15.9143 25.5233 13.9943 23.1036 12.6626Z" fill="#4A00FF"/>
</g>
<path d="M4.39327 2.49682C0.468354 6.41438 -0.825086 11.9522 0.512955 16.9463C0.624459 17.3791 0.769413 17.8008 0.925518 18.2225C2.41966 15.9142 4.48248 13.9942 6.9021 12.6625C7.00246 10.7315 7.78298 8.83372 9.26598 7.3577C9.65624 6.96927 10.0688 6.63634 10.5037 6.34779C11.4849 5.70411 12.087 4.62762 12.087 3.46234C12.087 0.754449 9.05412 -0.921333 6.77945 0.565785C5.93202 1.12068 5.1292 1.76436 4.38212 2.50792L4.39327 2.49682Z" fill="#373737"/>
<path d="M29.5596 9.41092C28.924 6.8806 27.6083 4.48346 25.6124 2.49693C24.8653 1.75337 24.0625 1.10969 23.215 0.554799C20.9404 -0.93232 17.9075 0.743463 17.9075 3.45135C17.9075 4.61663 18.5096 5.69313 19.4908 6.3368C19.9368 6.62535 20.3494 6.96938 20.7397 7.35781C22.2227 8.83383 23.0032 10.7316 23.1035 12.6626C25.5343 13.9944 27.586 15.9143 29.0801 18.2227C30.1282 15.3927 30.2844 12.3186 29.5596 9.41092Z" fill="#373737"/>
<path d="M34.7557 24.715C34.4435 24.715 34.2094 24.6484 34.0533 24.5041C33.8971 24.3598 33.8191 24.1157 33.8191 23.7605V22.6175C33.8191 22.2623 33.8971 22.0182 34.0533 21.8739C34.2094 21.7296 34.4435 21.663 34.7557 21.663H38.0897V17.9896C36.7962 17.69 35.7816 17.1351 35.0568 16.336C34.3209 15.537 33.9529 14.4827 33.9529 13.162V7.43553C33.9529 6.61429 34.0979 5.89292 34.4101 5.26034C34.7223 4.62776 35.1348 4.10616 35.6923 3.67334C36.2387 3.25162 36.9077 2.92978 37.6883 2.71892C38.4688 2.50806 39.3274 2.39708 40.2751 2.39708C41.2229 2.39708 42.0815 2.50806 42.862 2.71892C43.6425 2.92978 44.3004 3.25162 44.8579 3.67334C45.4043 4.09506 45.8392 4.62776 46.1402 5.26034C46.4413 5.89292 46.5974 6.61429 46.5974 7.43553V13.162C46.5974 14.4716 46.2294 15.537 45.5047 16.336C44.7687 17.1351 43.7652 17.69 42.4941 17.9896V21.663H45.828C46.1402 21.663 46.3744 21.7296 46.5305 21.8739C46.6866 22.0182 46.7646 22.2623 46.7646 22.6175V23.7605C46.7646 24.1157 46.6866 24.3598 46.5305 24.5041C46.3744 24.6484 46.1402 24.715 45.828 24.715H34.7892H34.7557ZM42.3045 7.36894C42.3045 6.99161 42.2488 6.68087 42.1372 6.43672C42.0257 6.19257 41.8696 5.98171 41.6801 5.82634C41.4905 5.67096 41.2787 5.54889 41.0334 5.4823C40.7881 5.41571 40.5316 5.37132 40.2528 5.37132C39.6953 5.37132 39.227 5.52669 38.8144 5.82634C38.413 6.12598 38.2012 6.64758 38.2012 7.36894V13.2064C38.2012 13.9389 38.4019 14.4494 38.8144 14.749C39.2159 15.0487 39.6953 15.2041 40.2528 15.2041C40.5316 15.2041 40.7881 15.1708 41.0334 15.0931C41.2787 15.0265 41.4905 14.9044 41.6801 14.749C41.8696 14.5937 42.0257 14.3828 42.1372 14.1387C42.2488 13.8945 42.3045 13.5838 42.3045 13.2064V7.36894ZM49.5188 24.715C49.1731 24.715 48.9278 24.6373 48.794 24.4708C48.6602 24.3154 48.5821 24.0713 48.5821 23.7494V3.3515C48.5821 3.02966 48.649 2.79661 48.794 2.63014C48.9278 2.47477 49.1731 2.38599 49.5188 2.38599H52.0499C52.3956 2.38599 52.6409 2.46367 52.7747 2.63014C52.9085 2.78551 52.9754 3.02966 52.9754 3.3515V11.7637H53.9343C54.2465 11.7637 54.4807 11.8303 54.6368 11.9746C54.7929 12.1188 54.8709 12.363 54.8709 12.7181V15.193C54.8709 15.5481 54.7929 15.7922 54.6368 15.9365C54.4807 16.0808 54.2465 16.1474 53.9343 16.1474H52.9754V23.7383C52.9754 24.0602 52.9085 24.2932 52.7747 24.4597C52.6409 24.6151 52.3956 24.7039 52.0499 24.7039H49.5188V24.715Z" fill="#075AD3"/>
<path d="M55.7295 7.87945C55.7295 7.0471 55.8298 6.29245 56.0417 5.61547C56.2536 4.9385 56.5881 4.36141 57.0452 3.8842C57.5024 3.40699 58.1268 3.04076 58.885 2.77441C59.6433 2.51916 60.5799 2.38599 61.7061 2.38599C62.8323 2.38599 63.7466 2.51916 64.516 2.77441C65.2853 3.02966 65.8986 3.3959 66.3669 3.8842C66.8352 4.36141 67.1697 4.9385 67.3704 5.61547C67.5823 6.29245 67.6827 7.0471 67.6827 7.87945V18.6888C67.6827 19.5211 67.5823 20.2758 67.3704 20.9528C67.1697 21.6297 66.8241 22.2068 66.3669 22.684C65.8986 23.1613 65.2853 23.5275 64.516 23.7938C63.7466 24.0491 62.81 24.1823 61.7061 24.1823C60.6022 24.1823 59.6433 24.0491 58.885 23.7938C58.1268 23.5386 57.5135 23.1724 57.0452 22.684C56.5769 22.1957 56.2424 21.6297 56.0417 20.9528C55.8298 20.2758 55.7295 19.5211 55.7295 18.6888V7.87945ZM60.1227 19.2548C60.1227 19.9096 60.2342 20.4312 60.4572 20.7974C60.6802 21.1747 61.0928 21.3523 61.6949 21.3523C62.297 21.3523 62.7096 21.1636 62.9326 20.7974C63.1556 20.4312 63.2671 19.9096 63.2671 19.2548V7.31345C63.2671 6.65868 63.1556 6.13708 62.9326 5.77085C62.7096 5.40461 62.297 5.21595 61.6949 5.21595C61.0928 5.21595 60.6802 5.40461 60.4572 5.77085C60.2342 6.14817 60.1227 6.65868 60.1227 7.31345V19.2437V19.2548ZM72.009 24.715C71.6633 24.715 71.418 24.6373 71.2842 24.4708C71.1504 24.3154 71.0724 24.0713 71.0724 23.7494V3.3515C71.0724 3.02966 71.1393 2.79661 71.2842 2.63014C71.418 2.47477 71.6633 2.38599 72.009 2.38599H74.5401C74.8858 2.38599 75.1311 2.46367 75.2649 2.63014C75.3987 2.78551 75.4656 3.02966 75.4656 3.3515V23.7494C75.4656 24.0713 75.3987 24.3043 75.2649 24.4708C75.1311 24.6262 74.8858 24.715 74.5401 24.715H72.009Z" fill="#075AD3"/>
<path d="M79.067 24.7148C78.7548 24.7148 78.5206 24.6483 78.3645 24.504C78.2084 24.3597 78.1304 24.1156 78.1304 23.7604V22.5841C78.1304 22.2289 78.2084 21.9848 78.3645 21.8405C78.5206 21.6962 78.7548 21.6296 79.067 21.6296H96.8295C97.1417 21.6296 97.3759 21.6962 97.532 21.8405C97.6881 21.9848 97.7661 22.2289 97.7661 22.5841V23.7604C97.7661 24.1156 97.6881 24.3597 97.532 24.504C97.3759 24.6483 97.1417 24.7148 96.8295 24.7148H79.067ZM90.1393 5.50438V6.54759C90.1393 6.90272 90.2508 7.28005 90.485 7.67957C90.7191 8.0791 91.0202 8.47862 91.3993 8.87815C91.7784 9.27767 92.2133 9.67719 92.7039 10.0656C93.1945 10.454 93.6963 10.8203 94.198 11.1421C94.6998 11.464 95.2015 11.7636 95.7033 12.0189C96.1939 12.2741 96.6288 12.4628 97.0079 12.5959C97.164 12.6514 97.2867 12.7735 97.3647 12.9733C97.4539 13.173 97.4985 13.3839 97.4985 13.6169V16.3026C97.4985 16.569 97.4428 16.7133 97.3201 16.7466C97.1975 16.7688 97.0525 16.7577 96.8852 16.7022C96.2274 16.4913 95.5026 16.1917 94.6886 15.7921C93.8747 15.4037 93.0607 14.9598 92.2356 14.4715C91.4104 13.9832 90.6188 13.4616 89.8717 12.9178C89.1246 12.3629 88.4779 11.8302 87.9427 11.2975C87.4298 11.8302 86.783 12.374 86.0248 12.9178C85.2666 13.4727 84.4749 13.9832 83.6609 14.4715C82.847 14.9598 82.0218 15.4037 81.2079 15.7921C80.3939 16.1806 79.658 16.4802 79.0224 16.7022C78.8551 16.7577 78.699 16.7688 78.5875 16.7466C78.476 16.7244 78.4091 16.569 78.4091 16.3026V13.6169C78.4091 13.3839 78.4537 13.173 78.5429 12.9733C78.6321 12.7735 78.7548 12.6514 78.8997 12.5959C79.2789 12.4517 79.7137 12.263 80.2043 12.0078C80.695 11.7525 81.1967 11.4751 81.7096 11.1421C82.2225 10.8092 82.7132 10.454 83.2038 10.0656C83.6944 9.67719 84.1293 9.27767 84.5084 8.87815C84.8875 8.47862 85.1885 8.0791 85.4227 7.67957C85.6569 7.28005 85.7684 6.90272 85.7684 6.54759V5.50438H79.3346C79.0224 5.50438 78.7882 5.4378 78.6321 5.29352C78.476 5.14925 78.398 4.9051 78.398 4.54996V3.35139C78.398 2.99626 78.476 2.75211 78.6321 2.60783C78.7882 2.46356 79.0224 2.39697 79.3346 2.39697H96.573C96.8852 2.39697 97.1194 2.46356 97.2755 2.60783C97.4316 2.75211 97.5097 2.99626 97.5097 3.35139V4.54996C97.5097 4.9051 97.4316 5.14925 97.2755 5.29352C97.1194 5.4378 96.8852 5.50438 96.573 5.50438H90.1393Z" fill="#075AD3"/>
<path d="M100.788 15.659C100.476 15.659 100.242 15.5924 100.085 15.4481C99.9294 15.3038 99.8513 15.0597 99.8513 14.7045V13.5615C99.8513 13.2063 99.9294 12.9622 100.085 12.8179C100.242 12.6736 100.476 12.607 100.788 12.607H107.746V10.5539H104.468C103.81 10.5539 103.208 10.4762 102.65 10.3098C102.093 10.1544 101.602 9.91025 101.189 9.57731C100.777 9.24438 100.453 8.82266 100.219 8.31215C99.9851 7.80165 99.8736 7.18017 99.8736 6.4699C99.8736 5.75964 99.9851 5.17145 100.219 4.66094C100.453 4.15044 100.777 3.71762 101.189 3.38469C101.602 3.05175 102.093 2.7965 102.65 2.64113C103.208 2.48576 103.821 2.39697 104.501 2.39697H115.384C116.053 2.39697 116.666 2.47466 117.235 2.64113C117.792 2.7965 118.283 3.05175 118.695 3.38469C119.108 3.71762 119.431 4.15044 119.665 4.66094C119.9 5.17145 120.011 5.78183 120.011 6.4699C120.011 7.15797 119.9 7.79055 119.665 8.31215C119.431 8.83375 119.108 9.24438 118.695 9.57731C118.283 9.91025 117.792 10.1544 117.235 10.3098C116.677 10.4651 116.064 10.5539 115.417 10.5539H112.139V12.607H119.097C119.409 12.607 119.643 12.6736 119.799 12.8179C119.955 12.9622 120.033 13.2063 120.033 13.5615V14.7045C120.033 15.0597 119.955 15.3038 119.799 15.4481C119.643 15.5924 119.409 15.659 119.097 15.659H100.821H100.788ZM120 23.7493C120 24.0712 119.933 24.3042 119.788 24.4707C119.654 24.6261 119.409 24.7148 119.063 24.7148H100.788C100.442 24.7148 100.197 24.6372 100.063 24.4707C99.9294 24.3153 99.8513 24.0712 99.8513 23.7493V18.5C99.8513 18.1782 99.9182 17.9451 100.063 17.7787C100.197 17.6233 100.442 17.5345 100.788 17.5345H103.319C103.665 17.5345 103.91 17.6122 104.044 17.7787C104.178 17.934 104.256 18.1782 104.256 18.5V21.6407H119.075C119.42 21.6407 119.665 21.7184 119.799 21.8849C119.933 22.0403 120.011 22.2844 120.011 22.6062V23.7493H120ZM114.77 7.45761C115.172 7.45761 115.439 7.36883 115.596 7.19126C115.752 7.0137 115.83 6.76954 115.83 6.4699C115.83 5.81513 115.473 5.48219 114.77 5.48219H105.081C104.378 5.48219 104.022 5.81513 104.022 6.4699C104.022 6.76954 104.1 7.0137 104.256 7.19126C104.412 7.36883 104.691 7.45761 105.081 7.45761H114.77Z" fill="#075AD3"/>
</g>
<defs>
<linearGradient id="paint0_linear_5551_74173" x1="0.925617" y1="20.3312" x2="29.0914" y2="20.3312" gradientUnits="userSpaceOnUse">
<stop stop-color="#65ABFB"/>
<stop offset="1" stop-color="#240091"/>
</linearGradient>
<clipPath id="clip0_5551_74173">
<rect width="120" height="28" fill="white"/>
</clipPath>
</defs>
</svg>
